<svg width="40" height="36" viewBox="0 0 40 36" fill="none" xmlns="http://www.w3.org/2000/svg">
<path d="M32.5936 12.418H29.6771C29.2265 12.418 28.8613 12.7801 28.8613 13.2267V28.1911C28.8613 28.6378 29.2265 28.9999 29.6771 28.9999H32.5936C33.0441 28.9999 33.4093 28.6378 33.4093 28.1911V13.2267C33.4093 12.7801 33.0441 12.418 32.5936 12.418Z" fill="#161C2F"/>
<path d="M25.5067 17.7671H22.5901C22.1396 17.7671 21.7744 18.1292 21.7744 18.5759V28.1912C21.7744 28.6379 22.1396 29 22.5901 29H25.5067C25.9572 29 26.3224 28.6379 26.3224 28.1912V18.5759C26.3224 18.1292 25.9572 17.7671 25.5067 17.7671Z" fill="#161C2F"/>
<path d="M18.4208 23.4907H15.5042C15.0537 23.4907 14.6885 23.8528 14.6885 24.2995V28.1914C14.6885 28.6381 15.0537 29.0002 15.5042 29.0002H18.4208C18.8713 29.0002 19.2365 28.6381 19.2365 28.1914V24.2995C19.2365 23.8528 18.8713 23.4907 18.4208 23.4907Z" fill="#161C2F"/>
<path fill-rule="evenodd" clip-rule="evenodd" d="M28.7723 4.71048C28.1377 4.08192 28.5828 3 29.4761 3H34C34.5522 3 35 3.44771 35 4V8.48079C35 9.36939 33.9276 9.81659 33.2962 9.19127L32.1175 8.02375L16.5109 19.2118C15.9197 19.6356 15.1133 19.6067 14.5546 19.1417L5.01886 10.4395C4.6979 10.1466 4.18182 10.3743 4.18182 10.8089V27.2305C4.18182 27.7828 3.7341 28.2305 3.18182 28.2305H2C1.44772 28.2305 1 27.7828 1 27.2305V6.29323C1 5.68063 1.35845 5.12356 1.91909 4.86487C2.47973 4.60618 3.14092 4.69276 3.61442 5.08688L15.0532 15.3988C15.4022 15.7135 15.9234 15.7426 16.3054 15.4688L29.8389 5.76688L28.7723 4.71048Z" fill="#00A661"/>
</svg>
