<svg width="140" height="22" viewBox="0 0 140 22" fill="none" xmlns="http://www.w3.org/2000/svg">
<path d="M14.5972 5.12961C14.6955 5.54173 14.3658 5.91646 13.9421 5.91646H12.2766C11.9363 5.91646 11.6524 5.66897 11.5487 5.34483C11.461 5.07091 11.3468 4.81768 11.206 4.58514C10.9718 4.19309 10.6805 3.86094 10.332 3.58869C9.98355 3.31644 9.58606 3.11225 9.13956 2.97612C8.69851 2.83455 8.22206 2.76376 7.71023 2.76376C6.8009 2.76376 5.99503 2.99245 5.29261 3.44984C4.5902 3.90178 4.04025 4.56608 3.64276 5.44274C3.24527 6.31395 3.04652 7.37846 3.04652 8.63627C3.04652 9.91587 3.24527 10.994 3.64276 11.8707C4.04569 12.7419 4.59564 13.4007 5.29261 13.8472C5.99503 14.2883 6.79818 14.5088 7.70206 14.5088C8.20301 14.5088 8.67128 14.4434 9.10689 14.3128C9.54794 14.1766 9.94271 13.9779 10.2912 13.7165C10.6451 13.4552 10.9419 13.1339 11.1815 12.7528C11.3282 12.5245 11.4475 12.2768 11.5396 12.0096C11.6496 11.6901 11.9333 11.4472 12.2712 11.4491L13.939 11.458C14.3638 11.4602 14.6915 11.8388 14.5816 12.249C14.4461 12.7543 14.252 13.238 13.9993 13.7002C13.6236 14.3972 13.1308 15.0125 12.521 15.5461C11.9111 16.0743 11.1978 16.4881 10.381 16.7876C9.56428 17.0816 8.65767 17.2286 7.66122 17.2286C6.19105 17.2286 4.87879 16.8883 3.72443 16.2077C2.57008 15.527 1.66075 14.5442 0.996449 13.2591C0.33215 11.9741 0 10.4331 0 8.63627C0 6.83395 0.334872 5.293 1.00462 4.01341C1.67436 2.72837 2.58641 1.74553 3.74077 1.0649C4.89512 0.384262 6.20194 0.0439453 7.66122 0.0439453C8.59233 0.0439453 9.4581 0.174627 10.2585 0.43599C11.0589 0.697355 11.7723 1.08123 12.3984 1.58762C13.0246 2.08857 13.5392 2.70387 13.9421 3.43351C14.2316 3.94688 14.45 4.51225 14.5972 5.12961Z" fill="#0B0E1B"/>
<path d="M17.7868 16.9999C17.4002 16.9999 17.0868 16.6865 17.0868 16.2999V5.15446C17.0868 4.76786 17.4002 4.45446 17.7868 4.45446H19.2536C19.6402 4.45446 19.9536 4.76786 19.9536 5.15446V6.46995C19.9536 6.5116 19.9874 6.54537 20.0291 6.54537V6.54537C20.062 6.54537 20.091 6.52396 20.1013 6.49272C20.3322 5.79407 20.7186 5.2535 21.2605 4.87101C21.8213 4.47351 22.4611 4.27477 23.1798 4.27477C23.3432 4.27477 23.5256 4.28294 23.7271 4.29927V4.29927C24.0279 4.31511 24.2416 4.57331 24.2416 4.8746V6.46818C24.2416 6.76562 23.9407 6.99735 23.6454 6.96191V6.96191C23.3786 6.9238 23.12 6.90474 22.8695 6.90474C22.3304 6.90474 21.8458 7.02181 21.4156 7.25595C20.9909 7.48464 20.6561 7.80318 20.411 8.21156C20.166 8.61994 20.0435 9.09094 20.0435 9.62456V16.2999C20.0435 16.6865 19.7301 16.9999 19.3435 16.9999H17.7868Z" fill="#0B0E1B"/>
<path d="M28.1255 21.7045C27.7226 21.7045 27.3496 21.6718 27.0065 21.6064C26.9378 21.5942 26.8718 21.5816 26.8087 21.5685C26.4555 21.4952 26.2765 21.1302 26.3795 20.7845L26.6854 19.7575C26.7953 19.3887 27.1816 19.1872 27.563 19.2397C27.7295 19.2626 27.8871 19.2729 28.0357 19.2705C28.3732 19.2651 28.67 19.1589 28.9259 18.952C29.1873 18.7505 29.4078 18.4129 29.5875 17.9392L29.7515 17.5002C29.8091 17.3459 29.8105 17.1762 29.7553 17.021L25.6232 5.38877C25.4614 4.9331 25.7993 4.45446 26.2829 4.45446H27.9094C28.2173 4.45446 28.4891 4.65565 28.579 4.95014L31.3 13.8664C31.3113 13.9035 31.3456 13.9289 31.3844 13.9289V13.9289C31.4232 13.9289 31.4575 13.9035 31.4688 13.8664L34.1977 4.94961C34.2877 4.65539 34.5593 4.45446 34.867 4.45446H36.5004C36.9845 4.45446 37.3225 4.93402 37.1597 5.38989L32.4707 18.5191C32.2365 19.1834 31.9262 19.7524 31.5396 20.2261C31.153 20.7053 30.6792 21.0701 30.1184 21.3206C29.563 21.5765 28.8987 21.7045 28.1255 21.7045Z" fill="#0B0E1B"/>
<path d="M39.9397 21.7045C39.5531 21.7045 39.2397 21.3911 39.2397 21.0045V5.15446C39.2397 4.76786 39.5531 4.45446 39.9397 4.45446H41.4474C41.834 4.45446 42.1474 4.76786 42.1474 5.15446V6.42303C42.1474 6.48157 42.1949 6.52903 42.2534 6.52903V6.52903C42.2936 6.52903 42.3302 6.50629 42.3487 6.4707C42.499 6.18287 42.7041 5.87834 42.9642 5.55708C43.2419 5.2086 43.6176 4.91184 44.0913 4.66681C44.565 4.41634 45.1694 4.2911 45.9045 4.2911C46.8737 4.2911 47.7477 4.53886 48.5263 5.03436C49.3104 5.52441 49.9311 6.25133 50.3885 7.21511C50.8514 8.17344 51.0828 9.34958 51.0828 10.7435C51.0828 12.1211 50.8568 13.2918 50.4049 14.2556C49.9529 15.2194 49.3376 15.9545 48.559 16.4608C47.7803 16.9672 46.8982 17.2204 45.9127 17.2204C45.1939 17.2204 44.5977 17.1006 44.124 16.8611C43.6502 16.6215 43.2691 16.3329 42.9805 15.9953C42.71 15.6676 42.4967 15.3573 42.3405 15.0643C42.3271 15.0392 42.3011 15.0233 42.2726 15.0233V15.0233C42.2305 15.0233 42.1964 15.0575 42.1964 15.0995V21.0045C42.1964 21.3911 41.883 21.7045 41.4964 21.7045H39.9397ZM42.1392 10.7272C42.1392 11.5385 42.2536 12.2491 42.4823 12.8589C42.7164 13.4688 43.0513 13.9452 43.4869 14.2883C43.9279 14.6259 44.4616 14.7947 45.0877 14.7947C45.7412 14.7947 46.2884 14.6204 46.7294 14.2719C47.1705 13.918 47.5026 13.4361 47.7259 12.8263C47.9546 12.211 48.0689 11.5113 48.0689 10.7272C48.0689 9.94854 47.9573 9.25701 47.7341 8.65261C47.5108 8.04821 47.1787 7.57449 46.7376 7.23144C46.2966 6.88841 45.7466 6.71689 45.0877 6.71689C44.4561 6.71689 43.9198 6.88296 43.4787 7.21511C43.0377 7.54726 42.7028 8.01281 42.4741 8.61177C42.2509 9.21073 42.1392 9.91587 42.1392 10.7272Z" fill="#0B0E1B"/>
<path d="M58.8793 4.45446C59.2659 4.45446 59.5793 4.76786 59.5793 5.15446V6.04139C59.5793 6.42799 59.2659 6.74139 58.8793 6.74139H53.0673C52.6807 6.74139 52.3673 6.42799 52.3673 6.04139V5.15446C52.3673 4.76786 52.6807 4.45446 53.0673 4.45446H58.8793ZM54.1478 2.14877C54.1478 1.76218 54.4612 1.44878 54.8478 1.44878H56.4045C56.7911 1.44878 57.1045 1.76218 57.1045 2.14878V13.2265C57.1045 13.624 57.1644 13.9289 57.2842 14.1412C57.4094 14.3482 57.5728 14.4897 57.7743 14.566C57.9757 14.6422 58.199 14.6803 58.444 14.6803C58.6291 14.6803 58.7979 14.6667 58.9504 14.6395V14.6395C59.1472 14.6055 59.345 14.7294 59.3871 14.9246L59.6772 16.2705C59.7518 16.6168 59.5543 16.9604 59.209 17.0393C59.1832 17.0452 59.1569 17.0511 59.1301 17.0571C58.8415 17.1224 58.4876 17.1605 58.0683 17.1714C57.3278 17.1932 56.6607 17.0816 56.0672 16.8366C55.4737 16.5861 55.0027 16.1995 54.6542 15.6768C54.3112 15.154 54.1424 14.5006 54.1478 13.7165V2.14877Z" fill="#0B0E1B"/>
<path d="M67.0896 17.2449C65.8644 17.2449 64.8026 16.9754 63.9042 16.4363C63.0058 15.8973 62.3088 15.1431 61.8133 14.1739C61.3232 13.2047 61.0782 12.0721 61.0782 10.7762C61.0782 9.48026 61.3232 8.34496 61.8133 7.3703C62.3088 6.39563 63.0058 5.63876 63.9042 5.0997C64.8026 4.56064 65.8644 4.2911 67.0896 4.2911C68.3147 4.2911 69.3765 4.56064 70.2749 5.0997C71.1734 5.63876 71.8676 6.39563 72.3577 7.3703C72.8532 8.34496 73.1009 9.48026 73.1009 10.7762C73.1009 12.0721 72.8532 13.2047 72.3577 14.1739C71.8676 15.1431 71.1734 15.8973 70.2749 16.4363C69.3765 16.9754 68.3147 17.2449 67.0896 17.2449ZM67.1059 14.8763C67.7702 14.8763 68.3256 14.6939 68.7721 14.3291C69.2186 13.9588 69.5508 13.4633 69.7686 12.8426C69.9918 12.2219 70.1034 11.5303 70.1034 10.768C70.1034 10.0003 69.9918 9.30602 69.7686 8.68528C69.5508 8.0591 69.2186 7.56087 68.7721 7.19061C68.3256 6.82034 67.7702 6.63521 67.1059 6.63521C66.4253 6.63521 65.859 6.82034 65.4071 7.19061C64.9606 7.56087 64.6257 8.0591 64.4024 8.68528C64.1846 9.30602 64.0757 10.0003 64.0757 10.768C64.0757 11.5303 64.1846 12.2219 64.4024 12.8426C64.6257 13.4633 64.9606 13.9588 65.4071 14.3291C65.859 14.6939 66.4253 14.8763 67.1059 14.8763Z" fill="#0B0E1B"/>
<path d="M75.0572 0.972639C75.0572 0.58604 75.3706 0.272639 75.7572 0.272639H79.5945C79.8785 0.272639 80.1344 0.444257 80.2421 0.707039L84.274 10.5385C84.2965 10.5933 84.3499 10.6292 84.4092 10.6292V10.6292C84.4685 10.6292 84.5219 10.5933 84.5444 10.5385L88.5762 0.70704C88.6839 0.444257 88.9398 0.272639 89.2238 0.272639H93.0611C93.4477 0.272639 93.7611 0.586039 93.7611 0.972639V16.2999C93.7611 16.6865 93.4477 16.9999 93.0611 16.9999H90.5243C90.1377 16.9999 89.8243 16.6865 89.8243 16.2999V6.8077C89.8243 6.76205 89.7873 6.72505 89.7416 6.72505V6.72505C89.7077 6.72505 89.6772 6.74578 89.6648 6.77732L85.8419 16.451C85.7363 16.7182 85.4782 16.8937 85.1909 16.8937H83.6284C83.3406 16.8937 83.0821 16.7176 82.9769 16.4498L79.1535 6.72026C79.141 6.68866 79.1106 6.66788 79.0766 6.66788V6.66788C79.031 6.66788 78.994 6.70485 78.994 6.75046V16.2999C78.994 16.6865 78.6806 16.9999 78.294 16.9999H75.7572C75.3706 16.9999 75.0572 16.6865 75.0572 16.2999V0.972639Z" fill="#0B0E1B"/>
<path d="M101.847 17.2368C100.535 17.2368 99.4023 16.9781 98.4494 16.4608C97.502 15.9381 96.7724 15.1949 96.2605 14.2311C95.7541 13.2619 95.5009 12.1102 95.5009 10.7762C95.5009 9.48026 95.7569 8.34769 96.2687 7.37846C96.7805 6.40379 97.502 5.64693 98.4331 5.10787C99.3642 4.56336 100.461 4.2911 101.725 4.2911C102.618 4.2911 103.434 4.42995 104.175 4.70765C104.915 4.98535 105.555 5.39645 106.094 5.94096C106.633 6.48547 107.053 7.15794 107.352 7.95836C107.652 8.75334 107.801 9.66539 107.801 10.6945V10.991C107.801 11.3776 107.488 11.691 107.101 11.691H97.5976C97.211 11.691 96.8976 11.3776 96.8976 10.991V10.0714C96.8976 9.68476 97.211 9.37136 97.5976 9.37136H103.376C103.766 9.37136 104.095 9.04509 103.978 8.67309C103.929 8.51946 103.864 8.37378 103.783 8.23606C103.587 7.90391 103.317 7.64527 102.974 7.46014C102.637 7.26956 102.247 7.17427 101.806 7.17427C101.36 7.17427 100.96 7.27501 100.606 7.47647C100.252 7.6725 99.9713 7.94203 99.7644 8.28507C99.5575 8.62266 99.4486 9.00654 99.4377 9.4367V11.7971C99.4377 12.309 99.5385 12.7582 99.7399 13.1448C99.9414 13.526 100.227 13.8227 100.598 14.0351C100.968 14.2474 101.409 14.3536 101.921 14.3536C102.275 14.3536 102.596 14.3046 102.884 14.2066C103.173 14.1086 103.421 13.9643 103.628 13.7737C103.714 13.6944 103.791 13.6075 103.859 13.513C104.035 13.27 104.295 13.0771 104.594 13.0858L106.943 13.1538C107.373 13.1662 107.694 13.562 107.547 13.9655C107.364 14.4659 107.1 14.9193 106.756 15.3256C106.244 15.93 105.572 16.401 104.739 16.7385C103.905 17.0707 102.942 17.2368 101.847 17.2368Z" fill="#0B0E1B"/>
<path d="M115.923 4.45446C116.309 4.45446 116.623 4.76786 116.623 5.15446V6.6948C116.623 7.0814 116.309 7.3948 115.923 7.3948H109.408C109.022 7.3948 108.708 7.0814 108.708 6.6948V5.15446C108.708 4.76786 109.022 4.45446 109.408 4.45446H115.923ZM110.366 2.14877C110.366 1.76218 110.68 1.44878 111.066 1.44878H113.66C114.047 1.44878 114.36 1.76218 114.36 2.14878V13.055C114.36 13.3 114.398 13.4987 114.474 13.6512C114.556 13.7982 114.673 13.9044 114.826 13.9697C114.978 14.0296 115.161 14.0596 115.373 14.0596C115.525 14.0596 115.686 14.046 115.855 14.0187V14.0187C116.07 13.9784 116.284 14.115 116.329 14.329L116.718 16.1825C116.793 16.5419 116.577 16.8967 116.22 16.9823C116.164 16.9959 116.104 17.01 116.043 17.0244C115.7 17.1061 115.289 17.1578 114.809 17.1796C113.873 17.2232 113.07 17.1143 112.4 16.8529C111.736 16.5861 111.226 16.1723 110.873 15.6114C110.524 15.0506 110.355 14.3454 110.366 13.496V2.14877Z" fill="#0B0E1B"/>
<path d="M124.09 17.2368C122.778 17.2368 121.645 16.9781 120.692 16.4608C119.745 15.9381 119.015 15.1949 118.503 14.2311C117.997 13.2619 117.744 12.1102 117.744 10.7762C117.744 9.48026 118 8.34769 118.511 7.37846C119.023 6.40379 119.745 5.64693 120.676 5.10787C121.607 4.56336 122.704 4.2911 123.967 4.2911C124.86 4.2911 125.677 4.42995 126.418 4.70765C127.158 4.98535 127.798 5.39645 128.337 5.94096C128.876 6.48547 129.295 7.15794 129.595 7.95836C129.894 8.75334 130.044 9.66539 130.044 10.6945V10.991C130.044 11.3776 129.731 11.691 129.344 11.691H119.84C119.454 11.691 119.14 11.3776 119.14 10.991V10.0714C119.14 9.68476 119.454 9.37136 119.84 9.37136H125.619C126.009 9.37136 126.338 9.04509 126.22 8.67309C126.172 8.51946 126.107 8.37378 126.026 8.23606C125.83 7.90391 125.56 7.64527 125.217 7.46014C124.879 7.26956 124.49 7.17427 124.049 7.17427C123.603 7.17427 123.202 7.27501 122.848 7.47647C122.495 7.6725 122.214 7.94203 122.007 8.28507C121.8 8.62266 121.691 9.00654 121.681 9.4367V11.7971C121.681 12.309 121.781 12.7582 121.983 13.1448C122.184 13.526 122.47 13.8227 122.84 14.0351C123.211 14.2474 123.652 14.3536 124.163 14.3536C124.517 14.3536 124.839 14.3046 125.127 14.2066C125.416 14.1086 125.664 13.9643 125.87 13.7737C125.957 13.6944 126.034 13.6075 126.102 13.513C126.278 13.27 126.538 13.0771 126.837 13.0858L129.186 13.1538C129.616 13.1662 129.937 13.562 129.79 13.9655C129.607 14.4659 129.343 14.9193 128.999 15.3256C128.487 15.93 127.814 16.401 126.981 16.7385C126.148 17.0707 125.184 17.2368 124.09 17.2368Z" fill="#0B0E1B"/>
<path d="M132.484 16.9999C132.097 16.9999 131.784 16.6865 131.784 16.2999V5.15446C131.784 4.76786 132.097 4.45446 132.484 4.45446H134.964C135.35 4.45446 135.664 4.76786 135.664 5.15446V6.66719C135.664 6.70817 135.697 6.74139 135.738 6.74139V6.74139C135.771 6.74139 135.8 6.719 135.81 6.68693C136.04 5.8867 136.407 5.28956 136.913 4.89551C137.431 4.48713 138.032 4.28294 138.718 4.28294C138.903 4.28294 139.094 4.29655 139.29 4.32377C139.301 4.32497 139.312 4.32621 139.322 4.32749C139.631 4.3645 139.837 4.6442 139.837 4.95563V7.13261C139.837 7.5093 139.46 7.79192 139.086 7.74601V7.74601C138.781 7.70789 138.509 7.68883 138.269 7.68883C137.795 7.68883 137.368 7.79501 136.987 8.00737C136.611 8.21428 136.314 8.50559 136.096 8.8813C135.884 9.25157 135.778 9.68717 135.778 10.1881V16.2999C135.778 16.6865 135.465 16.9999 135.078 16.9999H132.484Z" fill="#0B0E1B"/>
</svg>
