<svg width="28" height="27" viewBox="0 0 28 27" fill="none" xmlns="http://www.w3.org/2000/svg">
<path fill-rule="evenodd" clip-rule="evenodd" d="M14.5571 2.84948C15.9717 1.48329 17.8662 0.727336 19.8326 0.744424C21.7991 0.761512 23.6802 1.55028 25.0708 2.94084C26.4613 4.3314 27.2501 6.2125 27.2672 8.17897C27.2843 10.1454 26.5283 12.04 25.1621 13.4545L25.1591 13.4576L25.1418 13.4752L21.642 16.9749C20.8817 17.7355 19.9667 18.3237 18.9591 18.6996C17.9514 19.0755 16.8747 19.2303 15.802 19.1534C14.7293 19.0766 13.6857 18.77 12.7419 18.2543C11.7981 17.7387 10.9762 17.0261 10.332 16.1649C9.7807 15.4278 9.93127 14.3834 10.6684 13.832C11.4054 13.2807 12.4499 13.4312 13.0013 14.1683C13.3591 14.6468 13.8157 15.0427 14.3401 15.3291C14.8644 15.6156 15.4442 15.7859 16.0401 15.8286C16.6361 15.8713 17.2343 15.7853 17.7941 15.5765C18.3539 15.3677 18.8622 15.0409 19.2846 14.6183L19.2853 14.6176L22.7737 11.1292C23.5269 10.3444 23.9434 9.29599 23.934 8.20794C23.9245 7.11545 23.4863 6.0704 22.7138 5.29786C21.9412 4.52533 20.8962 4.08713 19.8037 4.07763C18.7149 4.06817 17.6658 4.48529 16.8808 5.23943L14.8834 7.22524C14.2306 7.87421 13.1754 7.87113 12.5264 7.21837C11.8774 6.5656 11.8805 5.51033 12.5333 4.86135L14.5425 2.8638L14.5571 2.84948ZM12.7103 24.3229C11.2958 25.6891 9.40131 26.445 7.43483 26.4279C5.46836 26.4109 3.58726 25.6221 2.1967 24.2315C0.806139 22.841 0.0173698 20.9599 0.00028358 18.9934C-0.0168064 17.0269 0.739154 15.1324 2.10534 13.7179L2.10836 13.7148L2.12563 13.6972L5.62543 10.1974C6.38574 9.43686 7.3008 8.84863 8.30841 8.47276C9.31605 8.09688 10.3927 7.94211 11.4655 8.01893C12.5382 8.09576 13.5818 8.40239 14.5256 8.91802C15.4694 9.43366 16.2913 10.1462 16.9354 11.0074C17.4868 11.7445 17.3362 12.789 16.5991 13.3403C15.862 13.8917 14.8176 13.7411 14.2662 13.004C13.9083 12.5256 13.4517 12.1297 12.9274 11.8432C12.4031 11.5568 11.8233 11.3864 11.2273 11.3438C10.6314 11.3011 10.0332 11.3871 9.47342 11.5959C8.91362 11.8047 8.40528 12.1315 7.98288 12.554L7.98215 12.5548L4.49374 16.0432C3.74057 16.828 3.32404 17.8764 3.33349 18.9644C3.34298 20.0569 3.78119 21.102 4.55372 21.8745C5.32626 22.647 6.37131 23.0852 7.4638 23.0947C8.5526 23.1042 9.60169 22.6871 10.3867 21.9329L12.3841 19.9471C13.0369 19.2982 14.0921 19.3012 14.7411 19.954C15.3901 20.6068 15.387 21.662 14.7342 22.311L12.725 24.3086L12.7103 24.3229Z" fill="#161C2F"/>
</svg>
