<svg width="10" height="10" viewBox="0 0 10 10" fill="none" xmlns="http://www.w3.org/2000/svg">
<path fill-rule="evenodd" clip-rule="evenodd" d="M4.02951 0.445592C4.25372 0.538461 4.3999 0.757243 4.3999 0.99992V9.39992C4.3999 9.73129 4.13127 9.99992 3.7999 9.99992C3.46853 9.99992 3.1999 9.73129 3.1999 9.39992V2.44845L1.42417 4.22418C1.18985 4.4585 0.809953 4.4585 0.575638 4.22418C0.341324 3.98987 0.341324 3.60997 0.575638 3.37566L3.37564 0.575656C3.54724 0.404057 3.80531 0.352724 4.02951 0.445592Z" fill="#A2A7B7"/>
<path fill-rule="evenodd" clip-rule="evenodd" d="M6.37039 9.95431C6.14619 9.86144 6 9.64266 6 9.39998V0.999982C6 0.668612 6.26863 0.399982 6.6 0.399982C6.93137 0.399982 7.2 0.668612 7.2 0.999982V7.95145L8.97574 6.17572C9.21005 5.9414 9.58995 5.9414 9.82426 6.17572C10.0586 6.41003 10.0586 6.78993 9.82426 7.02425L7.02426 9.82425C6.85267 9.99585 6.59459 10.0472 6.37039 9.95431Z" fill="#A2A7B7"/>
</svg>
